<?xml version="1.0" encoding="UTF-8" standalone="no"?>
<svg width="91px" height="314px" viewBox="0 0 91 314" version="1.1" xmlns="http://www.w3.org/2000/svg" xmlns:xlink="http://www.w3.org/1999/xlink">
    <!-- Generator: Sketch 46.2 (44496) - http://www.bohemiancoding.com/sketch -->
    <title>Blue balloon</title>
    <desc>Created with Sketch.</desc>
    <defs></defs>
    <g id="Page-1" stroke="none" stroke-width="1" fill="none" fill-rule="evenodd">
        <g id="Blue-balloon" transform="translate(1.000000, 1.000000)" stroke="#000000" stroke-width="2">
            <path d="M40.9101562,136.3125 C22.0014673,126.532817 27.4898,132.36969 17.0351562,102.257812 C11.6896626,86.8615103 7.3001746,71.125316 3.46484375,55.2851562 C2.50204412,51.3087327 -0.909703137,24.199078 1.02734375,19.0976562 C10.3189032,-5.37266702 56.1451022,-1.89447246 72.359375,9.00390625 C87.0315188,18.8657472 86.7269789,43.6252026 87.9296875,57.2851562 C91.0406719,92.6186548 74.8567667,115.666764 45.5234375,133.09375 L40.9101562,136.3125 Z" id="Path" fill="#0150CE"></path>
            <path d="M42.4765625,135.921875 C42.4765625,192.969143 37.9280815,135.440513 56.3984375,188.417969 C62.0901549,204.743193 38.0163233,217.980221 44.9140625,232.957031 C47.5910188,238.769409 54.8973193,241.133117 58.8320312,246.179688 C65.3167295,254.496811 55.3718029,305.521196 54.65625,312.59375" id="Path-4"></path>
        </g>
    </g>
</svg>
