<?xml version="1.0" encoding="UTF-8" standalone="no"?>
<svg width="63px" height="222px" viewBox="0 0 63 222" version="1.1" xmlns="http://www.w3.org/2000/svg" xmlns:xlink="http://www.w3.org/1999/xlink">
    <!-- Generator: Sketch 46.2 (44496) - http://www.bohemiancoding.com/sketch -->
    <title>Red Balloon</title>
    <desc>Created with Sketch.</desc>
    <defs></defs>
    <g id="Page-1" stroke="none" stroke-width="1" fill="none" fill-rule="evenodd">
        <g id="Red-Balloon" transform="translate(1.000000, 1.000000)" stroke="#000000" stroke-width="2">
            <path d="M10.1210937,69.6992188 C8.03255208,61.0143229 4.92072036,52.5132776 3.85546875,43.6445313 C2.47175961,32.1244686 2.17410981,20.4368529 2.8125,8.8515625 C3.32370014,-0.425525566 46.1428381,-0.0334985915 48.046875,0.15234375 C63.8076432,1.69066377 61.0967965,26.1632676 59.8789062,35.296875 C59.0947575,41.1776242 51.6197696,53.7101714 47.3515625,56.8671875 C34.9591691,66.0333281 24.5611671,62.4377907 13.3398437,68.6992188 L10.1210937,69.6992188 Z" id="Path-3" fill="#D40994"></path>
            <path d="M11.6445312,69.6601562 C4.25993975,84.1032287 -2.95731451,102.026131 1.59765625,118.984375 C5.06903364,131.90838 31.3795531,124.723179 32.5664062,141.949219 C33.9315259,161.762627 27.7432459,158.27409 14.8203125,178.136719 C7.92955438,188.727857 11.6709707,211.838745 11.9921875,220.542969" id="Path-6"></path>
        </g>
    </g>
</svg>